<?xml version="1.0" encoding="utf-8"?>
<!-- Generator: Adobe Illustrator 22.0.1, SVG Export Plug-In . SVG Version: 6.00 Build 0)  -->
<svg version="1.1" id="图层_1" xmlns="http://www.w3.org/2000/svg" xmlns:xlink="http://www.w3.org/1999/xlink" x="0px" y="0px"
	 viewBox="0 0 340 32" style="enable-background:new 0 0 340 32;" xml:space="preserve">
<style type="text/css">
	.st0{fill:#FFFFFF;}
	.st1{fill:#5ACFCE;}
	.st2{fill:#319694;}
	.st3{fill:#42AEAD;}
	.st4{font-family:'BwModelica-Light';}
	.st5{font-size:19.7848px;}
</style>
<g>
	<g>
		<g>
			<path class="st0" d="M31.1,9.7H33l1.4,2.4v1.1H35h6.3h0.3v-0.8v-0.4h0c0,0-0.9,0-1.6-1.1c0,0,0,0,0,0c0,0,0,0,0-0.1
				c0-0.1-0.1-0.1-0.1-0.2c0,0,0,0,0,0l-0.6-1h0l-2.5-4.3h-5.6V9.7z"/>
			<path class="st0" d="M30.5,28.5C30.5,28.5,30.5,28.5,30.5,28.5l0-1.1h-5.4v1.1c0,0,0,0,0,0c0,2-1.3,2.3-2.2,2.3l2.2,0v0h-2.2v1.2
				h9.8v-1.2h-2.2v0l2.2,0C31.8,30.8,30.5,30.4,30.5,28.5z"/>
			<path class="st0" d="M41.5,19.8v-0.8h-0.3H35h-0.7v1.1L33,22.5h-2.4v-18V3.7c0,0,0,0,0,0c0-1.3,0.4-2.3,1.3-2.3h0v0V0.3h-1.3v0
				h-5.4v0h-1.3v1.2v0h0c0.9,0,1.3,1,1.3,2.3c0,0,0,0,0,0v1.7h-7.2V3.7c0,0,0,0,0,0c0-1.3,0.4-2.3,1.3-2.3h0v0V0.3h-1.3v0h-5.4v0
				h-1.3v1.2v0h0c0.9,0,1.3,1,1.3,2.3c0,0,0,0,0,0v1.7H6.2L5.8,6.2l-2,3.5l-1.6,2.8h0L0,16.1l2.1,3.7h0l1.6,2.8l2,3.5l0.5,0.8h5.6
				v-4.3H10l-3.7-6.4L10,9.7h15.1V14h-7.2v-3.7h-5.4v18.2c0,0,0,0,0,0c0,2-1.3,2.3-2.2,2.3l2.2,0v0h-2.2v1.2H20v-1.2h-2.2v0l2.2,0
				c-0.9,0-2.2-0.3-2.2-2.3c0,0,0,0,0,0v-1.7h18.9l2.5-4.3h0l0.6-1c0,0,0,0,0,0c0-0.1,0.1-0.1,0.1-0.2c0,0,0,0,0-0.1
				c0,0,0,0,0.1-0.1c0.7-1,1.5-1,1.5-1h0V19.8z M25.1,22.5h-7.2v-4.3h7.2V22.5z"/>
		</g>
		<g>
			<path class="st0" d="M58.4,23.8v-1c1.5,0,2.3-0.5,2.3-1.4v-4.7c-0.2-0.1-0.4-0.1-0.6-0.2c-0.3-0.1-0.6-0.1-1-0.1h-2.8
				c-0.6,0-1.1,0.1-1.5,0.3v4.7c0,0.9,0.7,1.4,2.1,1.4v1h-8.4v-1c1.6,0,2.4-0.5,2.4-1.4V11.2c0-1.2-0.8-1.8-2.4-1.8v-1h8.4v1
				c-1.4,0-2.1,0.6-2.1,1.8V15c0.2,0.1,0.5,0.1,0.7,0.2c0.2,0,0.5,0,0.8,0h2.8c0.8,0,1.4-0.1,1.6-0.2v-3.8c0-1.2-0.8-1.8-2.3-1.8v-1
				h8.3v1c-1.4,0-2.1,0.6-2.1,1.8v10.2c0,0.9,0.7,1.4,2.1,1.4v1H58.4z"/>
			<path class="st0" d="M76.6,21.7c-0.2,0.5-0.4,0.8-0.7,1.1c-0.3,0.3-0.6,0.6-1,0.8c-0.4,0.2-0.8,0.4-1.2,0.5
				c-0.4,0.1-0.8,0.1-1.2,0.1c-0.7,0-1.4-0.1-1.9-0.3c-0.6-0.2-1.1-0.5-1.5-1c-0.4-0.4-0.8-0.9-1-1.6c-0.2-0.6-0.4-1.3-0.4-2.1
				c0-1.7,0.5-3.1,1.5-4c1-0.9,2.4-1.4,4.1-1.4c0.4,0,0.8,0.1,1.1,0.2c0.4,0.1,0.7,0.3,1,0.5c0.3,0.2,0.5,0.4,0.7,0.7
				c0.2,0.3,0.3,0.6,0.3,0.9c0,0.3-0.1,0.6-0.4,0.9s-0.6,0.4-1,0.4c-0.7,0-1.1-0.4-1.1-1.1c0-0.1,0-0.2,0-0.3c0-0.1,0-0.3,0-0.4
				c0-0.2-0.1-0.4-0.4-0.5c-0.3-0.1-0.5-0.2-0.8-0.2c-0.4,0-0.7,0.1-1,0.3c-0.3,0.2-0.4,0.5-0.6,0.9c-0.1,0.4-0.2,0.7-0.3,1.2
				c0,0.4-0.1,0.9-0.1,1.3c0,0.6,0,1.1,0.1,1.6c0.1,0.5,0.2,0.9,0.4,1.3c0.2,0.4,0.4,0.7,0.7,0.9s0.7,0.3,1.2,0.3
				c1,0,1.8-0.5,2.4-1.4L76.6,21.7z"/>
			<path class="st0" d="M88.2,22.6c-0.1,0.5-0.5,0.8-0.9,1.1c-0.5,0.2-1,0.3-1.5,0.3c-0.5,0-0.9-0.1-1.3-0.3c-0.4-0.2-0.7-0.6-0.9-1
				c-0.5,0.4-1,0.7-1.4,1c-0.4,0.2-0.9,0.4-1.5,0.4c-0.8,0-1.6-0.2-2.1-0.6c-0.6-0.4-0.8-0.9-0.8-1.6c0-0.6,0.1-1.1,0.4-1.5
				c0.2-0.4,0.6-0.8,1.1-1.1c0.5-0.3,1.1-0.6,1.8-0.8c0.7-0.2,1.5-0.4,2.5-0.6v-0.7c0-0.7-0.1-1.2-0.2-1.6c-0.1-0.3-0.4-0.5-1-0.5
				c-0.5,0-0.9,0.1-1.3,0.2c-0.4,0.1-0.6,0.4-0.6,0.8c0.1,0.1,0.1,0.2,0.2,0.3c0,0.1,0.1,0.3,0.1,0.4c0,0.7-0.4,1-1.3,1
				c-0.7,0-1-0.4-1-1.2c0-0.4,0.1-0.7,0.2-1.1c0.2-0.3,0.4-0.6,0.8-0.9c0.3-0.2,0.8-0.4,1.3-0.6c0.6-0.1,1.2-0.2,2-0.2
				c0.5,0,1,0.1,1.4,0.2c0.5,0.1,0.9,0.3,1.2,0.6c0.4,0.3,0.6,0.6,0.9,1c0.2,0.4,0.3,0.9,0.3,1.5v4.9c0,0.5,0.2,0.7,0.6,0.7
				c0.1,0,0.2,0,0.3-0.1c0.1-0.1,0.2-0.1,0.4-0.2L88.2,22.6z M83.4,18.9c-0.9,0.1-1.6,0.4-2,0.7c-0.4,0.3-0.7,0.9-0.7,1.7
				c0,0.5,0.1,0.9,0.2,1.1c0.2,0.2,0.4,0.4,0.9,0.4c0.4,0,0.7-0.1,0.9-0.2c0.2-0.1,0.4-0.3,0.4-0.5c0.1-0.2,0.1-0.4,0.1-0.7
				c0-0.3,0-0.5,0.1-0.8V18.9z"/>
			<path class="st0" d="M95.2,17.2c-0.3-0.8-0.7-1.4-1.2-1.8c-0.5-0.4-0.9-0.6-1.4-0.6c-0.2,0-0.4,0-0.7,0.1c-0.2,0-0.4,0.1-0.6,0.2
				s-0.3,0.2-0.4,0.4c-0.1,0.2-0.2,0.4-0.2,0.6c0,0.2,0.1,0.4,0.4,0.6c0.2,0.2,0.5,0.3,0.8,0.5c0.3,0.1,0.7,0.2,1,0.3
				c0.3,0.1,0.6,0.2,0.8,0.2c0.3,0.1,0.7,0.3,1,0.4c0.3,0.1,0.6,0.3,0.9,0.5c0.3,0.2,0.5,0.5,0.6,0.8c0.2,0.3,0.2,0.7,0.2,1.2
				c0,0.5-0.1,1-0.3,1.4s-0.5,0.8-0.8,1.1c-0.3,0.3-0.7,0.5-1.2,0.7c-0.4,0.2-0.9,0.2-1.4,0.2c-0.5,0-0.9,0-1.2-0.1
				c-0.3-0.1-0.6-0.2-0.8-0.4c-0.2,0.1-0.4,0.2-0.7,0.3C90,24,89.6,24,89.2,24c-0.1-0.6-0.2-1.2-0.2-1.8c0-0.7,0-1.3,0-2h1.1
				c0.2,0.6,0.3,1,0.5,1.4c0.2,0.4,0.4,0.7,0.6,0.9c0.2,0.2,0.5,0.4,0.7,0.5c0.3,0.1,0.6,0.1,1,0.1c1.2,0,1.8-0.4,1.8-1.1
				c0-0.4-0.1-0.8-0.4-1c-0.3-0.2-0.6-0.4-1-0.6c-0.4-0.2-0.9-0.3-1.3-0.4c-0.5-0.1-0.9-0.3-1.3-0.5c-0.4-0.2-0.8-0.5-1-0.9
				c-0.3-0.4-0.4-0.9-0.4-1.5c0-0.9,0.3-1.6,0.9-2.2c0.6-0.6,1.5-0.9,2.7-0.9c0.3,0,0.7,0,1,0.1c0.3,0.1,0.6,0.2,0.9,0.4
				c0.1-0.1,0.3-0.2,0.4-0.3c0.2-0.1,0.4-0.2,0.8-0.2c0.2,0.6,0.3,1.1,0.3,1.7c0,0.5,0,1.1,0,1.6H95.2z"/>
			<path class="st0" d="M104.3,23.8v-1c1,0,1.5-0.3,1.5-0.8v-3.4c0-1-0.1-1.8-0.4-2.3c-0.3-0.5-0.7-0.8-1.4-0.8
				c-0.7,0-1.2,0.2-1.6,0.6c-0.4,0.4-0.6,0.9-0.7,1.6v4.1c0,0.7,0.5,1,1.6,1v1h-6.2v-1c1,0,1.5-0.3,1.5-1V11.2
				c0-1.1-0.5-1.7-1.4-1.7V8.6l4.5-0.7v7.6c0.4-0.5,0.9-0.9,1.5-1.1c0.6-0.2,1.2-0.4,1.9-0.4c0.5,0,1,0.1,1.4,0.2
				c0.5,0.1,0.9,0.3,1.2,0.6c0.4,0.3,0.6,0.6,0.8,1c0.2,0.4,0.3,0.8,0.3,1.3v5c0,0.5,0.5,0.8,1.6,0.8v1H104.3z"/>
		</g>
	</g>
	<g>
		<path class="st1" d="M137.8,0.4l16,15.8l16-15.8C169.7,0.4,137.8,0.2,137.8,0.4z"/>
		<path class="st2" d="M169.7,31.9l-16-15.8l-16,15.8C137.8,31.9,169.7,32.1,169.7,31.9z"/>
		<path class="st3" d="M169.7,0.4l-16,15.8l16,15.8C169.7,32,169.9,0.4,169.7,0.4z"/>
		<path class="st3" d="M137.8,32l16-15.8l-16-15.8C137.8,0.4,137.6,32,137.8,32z"/>
	</g>
	<text transform="matrix(1.0114 0 0 1 177.8955 23.7588)" class="st0 st4 st5">omniexplorer</text>
</g>
</svg>
