<?xml version="1.0" encoding="utf-8"?>
<!-- Generator: Adobe Illustrator 22.0.1, SVG Export Plug-In . SVG Version: 6.00 Build 0)  -->
<svg version="1.1" id="图层_1" xmlns="http://www.w3.org/2000/svg" xmlns:xlink="http://www.w3.org/1999/xlink" x="0px" y="0px"
	 viewBox="0 0 83 31" style="enable-background:new 0 0 83 31;" xml:space="preserve">
<style type="text/css">
	.st0{fill:#ffffff;}
	.st1{fill:#5ACFCE;}
	.st2{fill:#319694;}
	.st3{fill:#42AEAD;}
</style>
<g>
	<g>
		<path class="st0" d="M30.2,9.4H32l1.3,2.3v1.1H34h6h0.2v-0.8v-0.3h0c0,0-0.8,0-1.5-1.1c0,0,0,0,0,0c0,0,0,0,0-0.1
			c0-0.1-0.1-0.1-0.1-0.2c0,0,0,0,0,0l-0.6-1h0l-2.4-4.1h-5.4V9.4z"/>
		<path class="st0" d="M29.6,27.6C29.6,27.6,29.6,27.6,29.6,27.6l0-1.1h-5.2v1.1c0,0,0,0,0,0c0,1.9-1.2,2.2-2.1,2.2l2.1,0v0h-2.1
			v1.1h9.3v-1.1h-2.1v0l2.1,0C30.8,29.8,29.6,29.5,29.6,27.6z"/>
		<path class="st0" d="M40.2,19.1v-0.8H40h-6h-0.6v1.1L32,21.8h-2.3V4.3V3.6c0,0,0,0,0,0c0-1.3,0.3-2.2,1.2-2.2h0v0V0.3h-1.2v0h-5.2
			v0h-1.2v1.1v0h0c0.9,0,1.2,0.9,1.2,2.2c0,0,0,0,0,0v1.6h-6.9V3.6c0,0,0,0,0,0c0-1.3,0.3-2.2,1.2-2.2h0v0V0.3h-1.2v0h-5.2v0h-1.2
			v1.1v0h0c0.9,0,1.2,0.9,1.2,2.2c0,0,0,0,0,0v1.6H6.4L6,6L4,9.4l-1.5,2.7h0l-2,3.5l2,3.5h0L4,21.8L6,25.2L6.4,26h5.4v-4.1H10
			l-3.6-6.2L10,9.4h14.5v4.1h-6.9V9.9h-5.2v17.6c0,0,0,0,0,0c0,1.9-1.2,2.2-2.1,2.2l2.1,0v0h-2.1v1.1h9.3v-1.1h-2.1v0l2.1,0
			c-0.9,0-2.1-0.3-2.1-2.2c0,0,0,0,0,0V26h18.1l2.4-4.1h0l0.6-1c0,0,0,0,0,0c0-0.1,0.1-0.1,0.1-0.2c0,0,0,0,0-0.1c0,0,0,0,0-0.1
			c0.7-1,1.5-1,1.5-1h0V19.1z M24.4,21.8h-6.9v-4.1h6.9V21.8z"/>
	</g>
	<g>
		<path class="st1" d="M52.4,0.4l15.3,15.3L82.9,0.4C82.9,0.4,52.4,0.2,52.4,0.4z"/>
		<path class="st2" d="M82.9,30.9L67.6,15.6L52.4,30.9C52.4,30.9,82.9,31.1,82.9,30.9z"/>
		<path class="st3" d="M82.9,0.4L67.6,15.7L82.9,31C82.9,31,83.1,0.4,82.9,0.4z"/>
		<path class="st3" d="M52.4,31l15.3-15.3L52.4,0.4C52.4,0.4,52.2,31,52.4,31z"/>
	</g>
</g>
</svg>
