<?xml version="1.0" encoding="utf-8"?>
<!-- Generator: Adobe Illustrator 22.0.1, SVG Export Plug-In . SVG Version: 6.00 Build 0)  -->
<svg version="1.1" id="图层_1" xmlns="http://www.w3.org/2000/svg" xmlns:xlink="http://www.w3.org/1999/xlink" x="0px" y="0px"
	 viewBox="0 0 340 31" style="enable-background:new 0 0 340 31;" xml:space="preserve">
<style type="text/css">
	.st0{fill:#5C4D93;}
	.st1{fill:#5ACFCE;}
	.st2{fill:#319694;}
	.st3{fill:#42AEAD;}
	.st4{font-family:'BwModelica-Light';}
	.st5{font-size:19.1613px;}
</style>
<g>
	<g>
		<g>
			<path class="st0" d="M30.2,9.4H32l1.3,2.3v1.1H34h6h0.2v-0.8v-0.3h0c0,0-0.8,0-1.5-1.1c0,0,0,0,0,0c0,0,0,0,0-0.1
				c0-0.1-0.1-0.1-0.1-0.2c0,0,0,0,0,0l-0.6-1h0l-2.4-4.1h-5.4V9.4z"/>
			<path class="st0" d="M29.6,27.6C29.6,27.6,29.6,27.6,29.6,27.6l0-1.1h-5.2v1.1c0,0,0,0,0,0c0,1.9-1.2,2.2-2.1,2.2l2.1,0v0h-2.1
				v1.1h9.3v-1.1h-2.1v0l2.1,0C30.8,29.8,29.6,29.5,29.6,27.6z"/>
			<path class="st0" d="M40.2,19.1v-0.8H40h-6h-0.6v1.1L32,21.8h-2.3V4.3V3.6c0,0,0,0,0,0c0-1.3,0.3-2.2,1.2-2.2h0v0V0.3h-1.2v0
				h-5.2v0h-1.2v1.1v0h0c0.9,0,1.2,0.9,1.2,2.2c0,0,0,0,0,0v1.6h-6.9V3.6c0,0,0,0,0,0c0-1.3,0.3-2.2,1.2-2.2h0v0V0.3h-1.2v0h-5.2v0
				h-1.2v1.1v0h0c0.9,0,1.2,0.9,1.2,2.2c0,0,0,0,0,0v1.6H6.4L6,6L4,9.4l-1.5,2.7h0l-2,3.5l2,3.5h0L4,21.8L6,25.2L6.4,26h5.4v-4.1H10
				l-3.6-6.2L10,9.4h14.5v4.1h-6.9V9.9h-5.2v17.6c0,0,0,0,0,0c0,1.9-1.2,2.2-2.1,2.2l2.1,0v0h-2.1v1.1h9.3v-1.1h-2.1v0l2.1,0
				c-0.9,0-2.1-0.3-2.1-2.2c0,0,0,0,0,0V26h18.1l2.4-4.1h0l0.6-1c0,0,0,0,0,0c0-0.1,0.1-0.1,0.1-0.2c0,0,0,0,0-0.1c0,0,0,0,0-0.1
				c0.7-1,1.5-1,1.5-1h0V19.1z M24.4,21.8h-6.9v-4.1h6.9V21.8z"/>
		</g>
		<g>
			<path class="st0" d="M56.3,23v-0.9c1.5,0,2.2-0.5,2.2-1.4v-4.6c-0.2-0.1-0.4-0.1-0.6-0.2c-0.3-0.1-0.6-0.1-0.9-0.1h-2.7
				c-0.6,0-1,0.1-1.5,0.3v4.6c0,0.9,0.7,1.4,2,1.4V23h-8v-0.9c1.5,0,2.3-0.5,2.3-1.4v-9.9c0-1.2-0.8-1.8-2.3-1.8v-1h8v1
				c-1.4,0-2,0.6-2,1.8v3.7c0.2,0.1,0.5,0.1,0.7,0.2c0.2,0,0.5,0,0.8,0H57c0.8,0,1.3-0.1,1.6-0.2v-3.7c0-1.2-0.7-1.8-2.2-1.8v-1h8v1
				c-1.4,0-2.1,0.6-2.1,1.8v9.9c0,0.9,0.7,1.4,2.1,1.4V23H56.3z"/>
			<path class="st0" d="M73.8,21c-0.2,0.4-0.4,0.8-0.7,1.1c-0.3,0.3-0.6,0.6-1,0.8c-0.4,0.2-0.7,0.3-1.1,0.4
				c-0.4,0.1-0.8,0.1-1.1,0.1c-0.7,0-1.3-0.1-1.9-0.3c-0.6-0.2-1.1-0.5-1.5-0.9c-0.4-0.4-0.7-0.9-1-1.5s-0.3-1.3-0.3-2.1
				c0-1.7,0.5-3,1.4-3.9c1-0.9,2.3-1.4,4-1.4c0.4,0,0.7,0.1,1.1,0.2c0.4,0.1,0.7,0.3,1,0.5c0.3,0.2,0.5,0.4,0.7,0.7
				c0.2,0.3,0.3,0.6,0.3,0.9c0,0.3-0.1,0.6-0.4,0.8s-0.6,0.3-0.9,0.3c-0.7,0-1.1-0.4-1.1-1.1c0-0.1,0-0.2,0-0.3c0-0.1,0-0.3,0-0.4
				c0-0.2-0.1-0.4-0.4-0.5c-0.2-0.1-0.5-0.2-0.7-0.2c-0.4,0-0.7,0.1-0.9,0.3c-0.2,0.2-0.4,0.5-0.6,0.8c-0.1,0.3-0.2,0.7-0.3,1.1
				c0,0.4-0.1,0.8-0.1,1.2c0,0.6,0,1.1,0.1,1.6c0.1,0.5,0.2,0.9,0.4,1.3c0.2,0.4,0.4,0.6,0.7,0.9c0.3,0.2,0.7,0.3,1.2,0.3
				c0.9,0,1.7-0.5,2.3-1.4L73.8,21z"/>
			<path class="st0" d="M84.9,21.9c-0.1,0.5-0.4,0.8-0.9,1c-0.5,0.2-0.9,0.3-1.5,0.3c-0.4,0-0.9-0.1-1.3-0.3c-0.4-0.2-0.7-0.5-0.8-1
				c-0.5,0.4-0.9,0.7-1.4,0.9s-0.9,0.3-1.5,0.3c-0.8,0-1.5-0.2-2-0.6c-0.5-0.4-0.8-0.9-0.8-1.6c0-0.6,0.1-1,0.3-1.5
				c0.2-0.4,0.6-0.8,1-1.1s1-0.6,1.7-0.8c0.7-0.2,1.5-0.4,2.4-0.6v-0.7c0-0.7-0.1-1.2-0.2-1.5c-0.1-0.3-0.4-0.5-0.9-0.5
				c-0.5,0-0.9,0.1-1.2,0.2c-0.3,0.1-0.5,0.4-0.5,0.8c0.1,0.1,0.1,0.2,0.1,0.3c0,0.1,0.1,0.2,0.1,0.4c0,0.7-0.4,1-1.2,1
				c-0.7,0-1-0.4-1-1.1c0-0.4,0.1-0.7,0.2-1c0.2-0.3,0.4-0.6,0.7-0.8c0.3-0.2,0.8-0.4,1.3-0.6c0.5-0.1,1.2-0.2,1.9-0.2
				c0.5,0,0.9,0.1,1.4,0.2c0.4,0.1,0.8,0.3,1.2,0.5c0.3,0.2,0.6,0.6,0.8,0.9c0.2,0.4,0.3,0.9,0.3,1.4v4.7c0,0.5,0.2,0.7,0.6,0.7
				c0.1,0,0.2,0,0.3-0.1c0.1-0.1,0.2-0.1,0.4-0.2L84.9,21.9z M80.3,18.3c-0.9,0.1-1.5,0.3-1.9,0.7c-0.4,0.3-0.6,0.9-0.6,1.6
				c0,0.5,0.1,0.8,0.2,1.1c0.1,0.2,0.4,0.4,0.8,0.4c0.4,0,0.7-0.1,0.9-0.2c0.2-0.1,0.3-0.3,0.4-0.5c0.1-0.2,0.1-0.4,0.1-0.7
				s0-0.5,0.1-0.8V18.3z"/>
			<path class="st0" d="M91.6,16.6c-0.3-0.8-0.7-1.3-1.1-1.7c-0.5-0.4-0.9-0.6-1.4-0.6c-0.2,0-0.4,0-0.6,0.1c-0.2,0-0.4,0.1-0.6,0.2
				c-0.2,0.1-0.3,0.2-0.4,0.4c-0.1,0.2-0.2,0.4-0.2,0.6c0,0.2,0.1,0.4,0.3,0.6c0.2,0.2,0.5,0.3,0.8,0.4c0.3,0.1,0.6,0.2,1,0.3
				c0.3,0.1,0.6,0.2,0.8,0.2c0.3,0.1,0.7,0.2,1,0.4c0.3,0.1,0.6,0.3,0.9,0.5c0.2,0.2,0.4,0.5,0.6,0.8c0.2,0.3,0.2,0.7,0.2,1.1
				c0,0.5-0.1,1-0.3,1.4s-0.4,0.8-0.8,1c-0.3,0.3-0.7,0.5-1.1,0.7c-0.4,0.2-0.9,0.2-1.4,0.2c-0.5,0-0.9,0-1.2-0.1
				c-0.3-0.1-0.5-0.2-0.8-0.4c-0.2,0.1-0.4,0.2-0.6,0.3c-0.2,0.1-0.6,0.1-1,0.2c-0.1-0.5-0.1-1.1-0.2-1.8c0-0.6,0-1.3,0-2h1.1
				c0.2,0.5,0.3,1,0.5,1.3c0.2,0.4,0.3,0.6,0.5,0.8c0.2,0.2,0.4,0.4,0.7,0.4c0.3,0.1,0.6,0.1,1,0.1c1.1,0,1.7-0.4,1.7-1.1
				c0-0.4-0.1-0.7-0.4-1c-0.3-0.2-0.6-0.4-1-0.6c-0.4-0.2-0.8-0.3-1.3-0.4c-0.5-0.1-0.9-0.3-1.3-0.5s-0.7-0.5-1-0.8
				c-0.3-0.4-0.4-0.8-0.4-1.5c0-0.9,0.3-1.6,0.9-2.2c0.6-0.6,1.5-0.9,2.6-0.9c0.3,0,0.6,0,0.9,0.1c0.3,0.1,0.6,0.2,0.9,0.4
				c0.1-0.1,0.2-0.2,0.4-0.2c0.2-0.1,0.4-0.2,0.7-0.2c0.2,0.6,0.2,1.1,0.3,1.6c0,0.5,0,1,0,1.5H91.6z"/>
			<path class="st0" d="M100.3,23v-0.9c0.9,0,1.4-0.3,1.4-0.8V18c0-1-0.1-1.7-0.4-2.2c-0.3-0.5-0.7-0.7-1.3-0.7
				c-0.7,0-1.2,0.2-1.5,0.6c-0.4,0.4-0.6,0.9-0.7,1.6v3.9c0,0.6,0.5,0.9,1.6,0.9V23h-6v-0.9c0.9,0,1.4-0.3,1.4-0.9V10.8
				c0-1.1-0.4-1.6-1.3-1.6V8.4l4.3-0.7V15c0.4-0.5,0.8-0.9,1.4-1.1c0.6-0.2,1.2-0.4,1.8-0.4c0.5,0,0.9,0.1,1.4,0.2
				c0.4,0.1,0.8,0.3,1.2,0.6c0.3,0.2,0.6,0.6,0.8,0.9c0.2,0.4,0.3,0.8,0.3,1.3v4.8c0,0.5,0.5,0.8,1.5,0.8V23H100.3z"/>
		</g>
	</g>
	<g>
		<g>
			<path class="st1" d="M132.4,0.4l15.3,15.3l15.3-15.3C162.9,0.4,132.4,0.2,132.4,0.4z"/>
			<path class="st2" d="M162.9,30.9l-15.3-15.3l-15.3,15.3C132.4,30.9,162.9,31.1,162.9,30.9z"/>
			<path class="st3" d="M162.9,0.4l-15.3,15.3L162.9,31C162.9,31,163.1,0.4,162.9,0.4z"/>
			<path class="st3" d="M132.4,31l15.3-15.3L132.4,0.4C132.4,0.4,132.2,31,132.4,31z"/>
		</g>
		<text transform="matrix(1 0 0 1 170.7676 23.0176)" class="st4 st5">omniexplorer</text>
	</g>
</g>
</svg>
